# xmcd
#
# Track frame offsets:
#	150
#	16263
#	33588
#	47988
#	65163
#	81813
#	97413
#	112713
#	127788
#	144963
#	162213
#	177663
#	195138
#	209988
#	226113
#
# Disc length: 3225 seconds
#
# Revision: 4
# Processed by: cddbd v1.5.2PL0 Copyright (c) Steve Scherf et al.
# Submitted via: audiograbber 1.83.01
#
DISCID=cc0c970f
DTITLE=Hinterseer Hansi - Für immer
DYEAR=2008
DGENRE=Schlager
TTITLE0=Dieses Herz schenk ich Dir
TTITLE1=Fiesta de la Luna
TTITLE2=Die Ballade von der Liebe
TTITLE3=Der letzte Tanz mit dir
TTITLE4=Ich schenk dir den Himmel heut Nacht
TTITLE5=Ich bin so gern zuhaus
TTITLE6=La dolce Vita und Amore
TTITLE7=Wir feiern heut das Leben
TTITLE8=Wenn du glücklich bist
TTITLE9=Hey Baby tanz mit mir
TTITLE10=24 Stunden
TTITLE11=Die Liebe zu den Bergen
TTITLE12=Ich hab dich schon immer gern gehabt
TTITLE13=Du bist mein Augenstern
TTITLE14=Aber alles kam anders (Neuaufnahme 2008)
EXTD=
EXTT0=
EXTT1=
EXTT2=
EXTT3=
EXTT4=
EXTT5=
EXTT6=
EXTT7=
EXTT8=
EXTT9=
EXTT10=
EXTT11=
EXTT12=
EXTT13=
EXTT14=
PLAYORDER=
